<svg width="30" height="31" viewBox="0 0 30 31" fill="none" xmlns="http://www.w3.org/2000/svg">
<path d="M4.48413 5.47439H9.45589L11.0584 9.48067L8.48404 11.1969C8.17599 11.4023 7.99096 11.748 7.99096 12.1183C7.99377 12.2219 7.99096 12.1194 7.99096 12.1194L7.99096 12.1205L7.99097 12.123L7.991 12.1286L7.99116 12.1422C7.99133 12.1525 7.9916 12.1649 7.99207 12.1794C7.99301 12.2084 7.9947 12.2459 7.99774 12.2914C8.0038 12.3823 8.01522 12.5052 8.03669 12.6555C8.0796 12.9559 8.1629 13.3674 8.32461 13.8526C8.64931 14.8267 9.28732 16.0879 10.5299 17.3305C11.7725 18.5731 13.0337 19.2111 14.0078 19.5358C14.493 19.6975 14.9045 19.7808 15.2049 19.8237C15.3552 19.8452 15.4781 19.8566 15.569 19.8626C15.6145 19.8657 15.652 19.8674 15.681 19.8683C15.6955 19.8688 15.7079 19.8691 15.7181 19.8692L15.7318 19.8694L15.7374 19.8694L15.7399 19.8694L15.741 19.8694C15.741 19.8694 15.8646 19.8626 15.7421 19.8694C16.1615 19.8694 16.545 19.6325 16.7325 19.2573L17.4741 17.7742L22.386 18.5928V23.3763C20.0484 23.7143 13.735 24.0475 8.77394 19.0864C3.81286 14.1254 4.14606 7.81203 4.48413 5.47439ZM10.2871 12.6565L12.2869 11.3233C13.1582 10.7424 13.5036 9.63054 13.1146 8.65818L11.5121 4.6519C11.1758 3.8111 10.3615 3.25977 9.45589 3.25977H4.42628C3.42027 3.25977 2.47332 3.95866 2.30817 5.05018C1.93245 7.53343 1.42104 14.8655 7.20797 20.6524C12.9949 26.4393 20.327 25.9279 22.8102 25.5522C23.9017 25.3871 24.6006 24.4401 24.6006 23.4341V18.5928C24.6006 17.5102 23.8179 16.5863 22.7501 16.4083L17.8382 15.5897C16.8792 15.4299 15.9281 15.9142 15.4933 16.7838L15.1096 17.5511C14.989 17.5215 14.8544 17.4835 14.7082 17.4348C14.0213 17.2058 13.0679 16.7365 12.0959 15.7645C11.1238 14.7925 10.6545 13.8391 10.4256 13.1522C10.3637 12.9666 10.3192 12.7997 10.2871 12.6565Z" fill="#878787"/>
</svg>
