<svg width="40" height="40" viewBox="0 0 40 40" fill="none" xmlns="http://www.w3.org/2000/svg">
<path fill-rule="evenodd" clip-rule="evenodd" d="M3.33331 5.00004C3.33331 4.07957 4.07951 3.33337 4.99998 3.33337H18.3333C18.7753 3.33337 19.1993 3.50897 19.5118 3.82153L36.1785 20.4882C36.8294 21.1391 36.8294 22.1943 36.1785 22.8452L22.8452 36.1786C22.1943 36.8294 21.139 36.8294 20.4881 36.1786L3.82147 19.5119C3.50891 19.1993 3.33331 18.7754 3.33331 18.3334V5.00004ZM6.66665 6.66671V17.643L21.6666 32.643L32.643 21.6667L17.643 6.66671H6.66665Z" fill="#222222"/>
<path d="M15 12.5C15 13.8808 13.8807 15 12.5 15C11.1193 15 9.99998 13.8808 9.99998 12.5C9.99998 11.1193 11.1193 10 12.5 10C13.8807 10 15 11.1193 15 12.5Z" fill="#222222"/>
</svg>
