<svg width="42" height="42" viewBox="0 0 42 42" fill="none" xmlns="http://www.w3.org/2000/svg">
<path fill-rule="evenodd" clip-rule="evenodd" d="M20.645 3.44092C21.2966 3.44092 21.8923 3.80909 22.1838 4.39194L37.6675 35.3594C37.9643 35.9531 37.8932 36.6645 37.4848 37.1876C37.0763 37.7107 36.4034 37.9523 35.7555 37.8083L20.645 34.4504L5.53444 37.8083C4.88655 37.9523 4.21363 37.7107 3.80518 37.1876C3.39674 36.6645 3.32563 35.9531 3.62244 35.3594L19.1062 4.39194C19.3976 3.80909 19.9933 3.44092 20.645 3.44092ZM22.3654 31.3079L32.9735 33.6653L22.3654 12.4491V31.3079ZM18.9246 12.4491V31.3079L8.31649 33.6653L18.9246 12.4491Z" fill="#222222"/>
</svg>
