<svg width="40" height="40" viewBox="0 0 40 40" fill="none" xmlns="http://www.w3.org/2000/svg">
<path d="M6.66663 11.6667C6.66663 10.7462 7.41282 10 8.33329 10H31.6666C32.5871 10 33.3333 10.7462 33.3333 11.6667C33.3333 12.5871 32.5871 13.3333 31.6666 13.3333H8.33329C7.41282 13.3333 6.66663 12.5871 6.66663 11.6667ZM6.66663 20C6.66663 19.0795 7.41282 18.3333 8.33329 18.3333H31.6666C32.5871 18.3333 33.3333 19.0795 33.3333 20C33.3333 20.9205 32.5871 21.6667 31.6666 21.6667H8.33329C7.41282 21.6667 6.66663 20.9205 6.66663 20ZM6.66663 28.3333C6.66663 27.4129 7.41282 26.6667 8.33329 26.6667H31.6666C32.5871 26.6667 33.3333 27.4129 33.3333 28.3333C33.3333 29.2538 32.5871 30 31.6666 30H8.33329C7.41282 30 6.66663 29.2538 6.66663 28.3333Z" fill="#222222"/>
</svg>
