<svg width="24" height="24" viewBox="0 0 24 24" fill="none" xmlns="http://www.w3.org/2000/svg">
<path d="M3.58729 3.7717H7.5647L8.84671 6.97672L6.78722 8.34972C6.54078 8.51401 6.39275 8.7906 6.39275 9.08679C6.395 9.16973 6.39275 9.08768 6.39275 9.08768L6.39276 9.0886L6.39276 9.09059L6.39279 9.09505L6.39292 9.10598C6.39305 9.11415 6.39327 9.12407 6.39365 9.13568C6.3944 9.1589 6.39575 9.18893 6.39818 9.2253C6.40302 9.29803 6.41216 9.39634 6.42934 9.51658C6.46367 9.7569 6.53031 10.0861 6.65967 10.4742C6.91944 11.2535 7.42984 12.2625 8.42391 13.2566C9.41798 14.2506 10.427 14.761 11.2063 15.0208C11.5944 15.1502 11.9236 15.2168 12.1639 15.2511C12.2841 15.2683 12.3825 15.2775 12.4552 15.2823C12.4916 15.2847 12.5216 15.2861 12.5448 15.2868C12.5564 15.2872 12.5663 15.2874 12.5745 15.2876L12.5854 15.2877L12.5899 15.2877L12.5919 15.2877L12.5928 15.2877C12.5928 15.2877 12.6917 15.2823 12.5937 15.2877C12.9292 15.2877 13.236 15.0982 13.386 14.798L13.9793 13.6115L17.9088 14.2665V18.0932C16.0387 18.3636 10.988 18.6302 7.01914 14.6613C3.05028 10.6925 3.31684 5.64181 3.58729 3.7717ZM8.22969 9.51739L9.82947 8.45087C10.5266 7.98613 10.8028 7.09662 10.4917 6.31873L9.20968 3.11371C8.94063 2.44107 8.28916 2 7.5647 2H3.54101C2.73621 2 1.97865 2.55911 1.84653 3.43233C1.54595 5.41893 1.13682 11.2846 5.76636 15.9141C10.3959 20.5437 16.2615 20.1345 18.2482 19.834C19.1214 19.7018 19.6805 18.9443 19.6805 18.1395V14.2665C19.6805 13.4004 19.0543 12.6612 18.2001 12.5189L14.2705 11.8639C13.5033 11.7361 12.7425 12.1235 12.3946 12.8192L12.0877 13.4331C11.9912 13.4094 11.8835 13.379 11.7665 13.34C11.217 13.1569 10.4543 12.7814 9.67669 12.0038C8.89906 11.2262 8.52362 10.4635 8.34045 9.91397C8.29096 9.76549 8.25533 9.63198 8.22969 9.51739Z" fill="#878787"/>
</svg>
