<svg width="25" height="24" viewBox="0 0 25 24" fill="none" xmlns="http://www.w3.org/2000/svg">
<path d="M12.2852 4C7.86688 4 4.28516 7.58172 4.28516 12C4.28516 16.4183 7.86688 20 12.2852 20C16.7034 20 20.2852 16.4183 20.2852 12C20.2852 7.58172 16.7034 4 12.2852 4ZM2.28516 12C2.28516 6.47715 6.76231 2 12.2852 2C17.808 2 22.2852 6.47715 22.2852 12C22.2852 17.5228 17.808 22 12.2852 22C6.76231 22 2.28516 17.5228 2.28516 12ZM12.2852 7C12.8374 7 13.2852 7.44772 13.2852 8V11H16.2852C16.8374 11 17.2852 11.4477 17.2852 12C17.2852 12.5523 16.8374 13 16.2852 13H13.2852V16C13.2852 16.5523 12.8374 17 12.2852 17C11.7329 17 11.2852 16.5523 11.2852 16V13H8.28516C7.73287 13 7.28516 12.5523 7.28516 12C7.28516 11.4477 7.73287 11 8.28516 11H11.2852V8C11.2852 7.44772 11.7329 7 12.2852 7Z" fill="#222222"/>
</svg>
