<svg width="30" height="31" viewBox="0 0 30 31" fill="none" xmlns="http://www.w3.org/2000/svg">
<path d="M15 2.7832C9.5 2.7832 5 7.2832 5 12.7832C5 19.5332 13.75 27.1582 14.125 27.5332C14.375 27.6582 14.75 27.7832 15 27.7832C15.25 27.7832 15.625 27.6582 15.875 27.5332C16.25 27.1582 25 19.5332 25 12.7832C25 7.2832 20.5 2.7832 15 2.7832ZM15 24.9082C12.375 22.4082 7.5 17.0332 7.5 12.7832C7.5 8.6582 10.875 5.2832 15 5.2832C19.125 5.2832 22.5 8.6582 22.5 12.7832C22.5 16.9082 17.625 22.4082 15 24.9082ZM15 7.7832C12.25 7.7832 10 10.0332 10 12.7832C10 15.5332 12.25 17.7832 15 17.7832C17.75 17.7832 20 15.5332 20 12.7832C20 10.0332 17.75 7.7832 15 7.7832ZM15 15.2832C13.625 15.2832 12.5 14.1582 12.5 12.7832C12.5 11.4082 13.625 10.2832 15 10.2832C16.375 10.2832 17.5 11.4082 17.5 12.7832C17.5 14.1582 16.375 15.2832 15 15.2832Z" fill="#878787"/>
</svg>
