<svg width="42" height="42" viewBox="0 0 42 42" fill="none" xmlns="http://www.w3.org/2000/svg">
<path fill-rule="evenodd" clip-rule="evenodd" d="M32.184 9.10595C32.8559 9.77781 32.8559 10.8671 32.184 11.539L11.539 32.184C10.8672 32.8559 9.77784 32.8559 9.10598 32.184C8.43412 31.5121 8.43412 30.4228 9.10598 29.7509L29.751 9.10595C30.4228 8.43408 31.5122 8.43408 32.184 9.10595Z" fill="#222222"/>
<path d="M29.2471 32.6879C31.1474 32.6879 32.6879 31.1474 32.6879 29.2471C32.6879 27.3467 31.1474 25.8062 29.2471 25.8062C27.3468 25.8062 25.8062 27.3467 25.8062 29.2471C25.8062 31.1474 27.3468 32.6879 29.2471 32.6879Z" fill="#222222"/>
<path d="M12.0429 15.4837C13.9432 15.4837 15.4837 13.9432 15.4837 12.0429C15.4837 10.1426 13.9432 8.60205 12.0429 8.60205C10.1426 8.60205 8.60208 10.1426 8.60208 12.0429C8.60208 13.9432 10.1426 15.4837 12.0429 15.4837Z" fill="#222222"/>
</svg>
