<svg width="40" height="41" viewBox="0 0 40 41" fill="none" xmlns="http://www.w3.org/2000/svg">
<path fill-rule="evenodd" clip-rule="evenodd" d="M6.66663 7.18038C6.66663 5.33943 8.15901 3.84705 9.99996 3.84705H23.3333C23.7753 3.84705 24.1992 4.02264 24.5118 4.3352L32.8451 12.6685C33.1577 12.9811 33.3333 13.405 33.3333 13.847V33.847C33.3333 35.688 31.8409 37.1804 30 37.1804H9.99996C8.15901 37.1804 6.66663 35.688 6.66663 33.847V7.18038ZM29.3096 13.847H23.3333V7.87073L29.3096 13.847ZM20 7.18038V15.5137C20 16.4342 20.7462 17.1804 21.6666 17.1804H30V33.847H9.99996V7.18038L20 7.18038ZM13.3333 22.1804C13.3333 21.2599 14.0795 20.5137 15 20.5137H25C25.9204 20.5137 26.6666 21.2599 26.6666 22.1804C26.6666 23.1009 25.9204 23.847 25 23.847H15C14.0795 23.847 13.3333 23.1009 13.3333 22.1804ZM13.3333 28.847C13.3333 27.9266 14.0795 27.1804 15 27.1804H25C25.9204 27.1804 26.6666 27.9266 26.6666 28.847C26.6666 29.7675 25.9204 30.5137 25 30.5137H15C14.0795 30.5137 13.3333 29.7675 13.3333 28.847Z" fill="#222222"/>
</svg>
